<?xml version="1.0" standalone="no"?>
<!DOCTYPE svg PUBLIC "-//W3C//DTD SVG 20010904//EN"
 "http://www.w3.org/TR/2001/REC-SVG-20010904/DTD/svg10.dtd">
<svg version="1.0" xmlns="http://www.w3.org/2000/svg"
 width="500.000000pt" height="500.000000pt" viewBox="0 0 500.000000 500.000000"
 preserveAspectRatio="xMidYMid meet">
<metadata>
Created by potrace 1.11, written by Peter Selinger 2001-2013
</metadata>
<g transform="translate(0.000000,500.000000) scale(0.100000,-0.100000)"
fill="#000000" stroke="none">
<path d="M2298 4915 c-2 -2 -32 -5 -68 -9 -199 -20 -446 -79 -632 -152 -179
-70 -453 -222 -577 -320 -255 -202 -455 -422 -606 -665 -158 -255 -290 -603
-330 -874 -3 -16 -7 -40 -9 -52 -28 -141 -29 -563 -1 -703 3 -14 7 -41 10 -60
3 -19 7 -46 10 -60 3 -14 8 -36 11 -50 63 -313 219 -653 429 -935 259 -347
585 -604 1000 -786 103 -45 332 -119 415 -134 18 -3 93 -18 100 -20 9 -2 94
-14 145 -21 28 -4 70 -7 95 -8 25 -1 50 -4 55 -7 13 -7 252 -3 340 5 228 22
515 90 680 160 17 7 46 19 65 26 146 55 424 223 587 354 482 389 818 1005 879
1611 3 33 9 85 13 115 11 90 4 324 -14 450 -34 240 -81 420 -158 615 -36 91
-151 322 -173 346 -8 8 -14 19 -14 23 0 12 -103 158 -169 241 -72 91 -108 130
-210 229 -106 103 -92 91 -191 168 -292 226 -622 382 -970 459 -143 31 -114
27 -305 48 -60 7 -400 12 -407 6z"/>
</g>
</svg>
